<?xml version="1.0" encoding="utf-8"?>
<!-- Generator: Adobe Illustrator 16.0.0, SVG Export Plug-In . SVG Version: 6.00 Build 0)  -->
<!DOCTYPE svg PUBLIC "-//W3C//DTD SVG 1.1//EN" "http://www.w3.org/Graphics/SVG/1.1/DTD/svg11.dtd">
<svg version="1.1" id="Layer_1" xmlns="http://www.w3.org/2000/svg" xmlns:xlink="http://www.w3.org/1999/xlink" x="0px" y="0px"
	 width="184px" height="66px" viewBox="0 0 184 66" enable-background="new 0 0 184 66" xml:space="preserve">
<g>
	<path fill-rule="evenodd" clip-rule="evenodd" fill="#6A96D8" d="M151.766,15.612c-12.366-6.563-25.66-8.053-39.049-9.398
		c-11.085-1.114-22.18-2.535-33.378-2.138C67.345,4.502,55.492,5.831,43.746,8.438C29.873,11.517,18.148,18.484,7.178,27.172
		c-2.8,2.217-4.844,4.717-6.506,7.824c-0.787,1.47-0.808,4.857-0.445,6.484c3.992,17.911,19.518,20.698,38.345,20.181
		c14.611-0.401,29.27,0.021,43.902-0.691c16.786-0.817,33.542-2.068,50.373-2.306c10.274-0.145,19.771-4.492,28.663-9.539
		c5.969-3.388,7.272-7.153,5.718-13.95C165.18,26.221,160.174,20.075,151.766,15.612z"/>
	<path fill-rule="evenodd" clip-rule="evenodd" fill="#6A96D8" d="M177.172,11.652c-0.254-3.992-2.193-6.616-6.501-6.736
		c-4.208-0.118-7.76,3.414-7.691,7.519c0.063,3.821,2.794,6.271,6.928,6.216C174.569,18.588,177.443,15.914,177.172,11.652z"/>
	<path fill-rule="evenodd" clip-rule="evenodd" fill="#6A96D8" d="M178.006,28.328c-2.556-0.146-4.005,1.506-3.894,4.019
		c0.122,2.778,1.581,4.59,4.608,4.768c2.524-0.126,3.993-1.369,3.895-4C182.505,30.209,180.806,28.487,178.006,28.328z"/>
</g>
</svg>
